<svg width="452" height="156" fill="none" xmlns="http://www.w3.org/2000/svg"><path fill-rule="evenodd" clip-rule="evenodd" d="M423.806 104.932c0-3.053 2.397-5.533 5.347-5.533 2.955 0 5.35 2.48 5.35 5.533v40.512l-.098 1.758c-1.664 5.497-7.297 4.99-7.297 4.99-3.481.136-5.179-2.411-5.179-2.411l-14.545-26.992c-.15-.253-.587.062-.602.326v24.087c0 3.129-2.437 5.676-5.468 5.676-3.026 0-5.492-2.547-5.492-5.676v-39.685c0-1.197.594-2.12.594-2.12.479-.917 1.294-2.955 4.346-4.278 2.933-1.262 7.187.253 8.701 2.83 4.995 8.477 9.156 17.177 13.893 25.455.489.087.45-.737.45-.737v-23.735zm22.37-1.559h1.243c.325 0 1.328 0 1.328-.86 0-.763-.894-.763-1.211-.763h-1.36v1.623zm1.456-2.176c.302 0 1.728 0 1.728 1.282 0 .52-.246.995-.906 1.143v.022c.669.183.797.571.823 1.175.04.793.04.891.151 1.085h-.614c-.091-.139-.125-.278-.145-.872 0-.743-.135-1.12-1.266-1.12h-1.228v1.992h-.617v-4.707h2.074zm-3.915 2.319c0 1.946 1.619 3.562 3.682 3.562 2.02 0 3.674-1.583 3.674-3.562 0-1.93-1.594-3.567-3.674-3.567-2.097 0-3.682 1.637-3.682 3.567zm7.977 0c0 2.282-1.945 4.111-4.29 4.111-2.406 0-4.305-1.862-4.305-4.111 0-2.241 1.888-4.117 4.305-4.117 2.388 0 4.29 1.865 4.29 4.117zm-353.165-3.419c2.884 1.089 4.247 3.317 6.149 5.253 3.254 3.346 6.057 6.736 9.61 9.823.225.194.868.194 1.038 0 4.492-5.222 8.117-10.504 13.624-14.727 3.017-2.305 7.925-.622 8.855 3.281.456 1.89-.207 3.646-1.253 5-5.253 6.764-10.354 12.352-15.624 18.711-.147 7.029 0 12.949 0 20.31 0 2.904-3.527 5.175-5.902 5.129-1.712-.002-3.798-.734-4.841-2.611-.504-.875-.873-1.916-.908-2.76-.271-6.657-.582-13.301-.567-19.966-7.562-9.421-17.57-17.699-17.987-21.168-.467-3.965 2.555-8.253 7.806-6.275zm90.163 40.986v-35.421c-.037-9.041-12.467-7.565-12.047-.207v44.076s0 3.668 4.425 3.324h19.654s5.657.126 5.996-5.454c0 0-.048-4.862-4.675-5.882l-12.749-.048s-.82-.198-.627-1.062m-32.219-9.588c.055.003 2.781.089 2.794 0 .088-2.784 0-6.101-.056-8.79-2.286 2.739-4.152 5.168-6.349 7.86-.209.248-.34.843.296.882 1.172.065 2.696-.039 3.315.048zm15.886 16.227c-.542 4.881-4.447 5.931-6.813 5.783-1.707-.29-4.945-.84-5.692-4.314-.474-2.222-.581-5.615-.642-6.118-.016-.128-15.926-.041-15.947-.041-2.782 3.303-5.508 7.304-8.067 9.554-.924.807-2.295 1.02-3.308.955-2.494-.139-5.212-1.323-6.148-3.652-.572-1.401-1.123-3.038-.04-4.476 7.486-9.817 14.224-18.032 21.951-27.575 4.266-5.275 8.067-9.946 12.428-15.028 2.249-2.608 4.214-2.703 6.252-2.736-.129 0 5.53-.11 6.013 4.643v42.983M67.142 111.793c-8.282 0-15.005 6.424-15.005 14.36 0 7.925 6.723 14.349 15.005 14.349 8.287 0 14.993-6.424 14.993-14.349 0-7.936-6.706-14.36-14.993-14.36zm27.835 14.361c0 14.761-12.502 26.724-27.944 26.724-15.424 0-27.928-11.963-27.928-26.724 0-14.775 12.504-26.755 27.928-26.755 15.442 0 27.944 11.98 27.944 26.755zm129.158-3.419c1.207-9.537 7.646-17.61 16.211-21.22 10.328-4.376 22.677-1.926 29.875 7.001 1.555 1.929 1.084 4.487-.357 6.426-1.51 2.005-3.921 3.04-6.085 2.218-3.658-1.421-6.167-4.665-10.228-5.516-8.374-1.721-16.239 3.809-17.446 11.902-1.193 8.037 3.419 15.747 11.649 17.296 5.765 1.083 10.292-2.011 15.041-5.329 2.249-1.574 6.01-.783 7.417 2.022.839 1.685 1.467 3.497.434 5.309-3.873 6.806-11.753 9.253-19.03 9.945-5.585.536-10.688-1.395-15.463-4.285-8.764-5.306-13.336-15.415-12.018-25.769zm70.549 8.036c.637-.022.502-.62.288-.88-2.198-2.688-4.071-5.117-6.346-7.856-.064 2.688-.153 6.003-.043 8.786 0 .089 2.713 0 2.783-.005.603-.084 2.155.019 3.318-.045zm-19.201 16.255V104.04c.478-4.75 6.156-4.64 6.009-4.64 2.048.036 4.013.13 6.254 2.739 4.38 5.084 8.161 9.761 12.443 15.029 7.732 9.549 14.46 17.757 21.951 27.583 1.086 1.426.526 3.065-.04 4.472-.937 2.318-3.655 3.504-6.156 3.644-.992.067-2.375-.156-3.294-.949-2.556-2.253-5.289-6.254-8.078-9.557-.018 0-15.926-.095-15.945.036-.064.505-.171 3.895-.642 6.12-.754 3.462-3.989 4.032-5.688 4.311-.251.047.343-.031.006-.006-2.381.145-6.275-.896-6.82-5.776M18.67 122.906c3.567 0 6.459-2.539 6.459-5.686 0-3.142-2.892-5.692-6.459-5.692-3.572 0-6.46 2.55-6.46 5.692 0 3.147 2.888 5.686 6.46 5.686zm-13.4-18.854c3.508-2.752 5.274-3.83 10.861-4.537 4.725-.597 8.862 1.297 9.465 1.49 7.43 2.376 12.452 10.531 11.455 18.604-.589 4.8-3.575 9.134-7.288 12.265 3.586 7.566 10.292 12.497 9.227 16.245-.736 2.589-1.489 3.26-3.881 4.253-1.539.634-3.752.468-5.023-.573-6.228-5.046-9.512-12.343-14.758-17.563-1.292-1.279-1.872-.71-1.872-.014.012 6.121.068 10.665-.27 13.659-.197 1.792-1.966 3.857-3.181 4.429-3.351 1.602-7.888-.334-8.474-3.919-.115-.642-1.047-3.414-1.1-16.051-.018-6.256 0-7.625 0-17.558 0-4.057 2.012-8.517 4.84-10.73z" fill="#E2001A"/><mask id="mask0_185_2571" style="mask-type:luminance" maskUnits="userSpaceOnUse" x="327" y="99" width="39" height="54"><path fill-rule="evenodd" clip-rule="evenodd" d="M327.057 99.4h38.68v53.478h-38.68V99.399z" fill="#fff"/></mask><g mask="url(#mask0_185_2571)"><path fill-rule="evenodd" clip-rule="evenodd" d="M355.038 104.928c0-3.05 2.392-5.529 5.352-5.529 2.945 0 5.347 2.479 5.347 5.529v40.514l-.104 1.758c-1.665 5.499-7.297 4.99-7.297 4.99-3.486.133-5.172-2.411-5.172-2.411l-14.562-26.991c-.142-.255-.592.059-.597.322v24.09c0 3.132-2.445 5.678-5.481 5.678-3.028 0-5.467-2.546-5.467-5.678v-39.685c0-1.197.578-2.121.578-2.121.492-.918 1.298-2.953 4.35-4.277 2.934-1.263 7.192.254 8.708 2.828 4.996 8.479 9.15 17.18 13.876 25.458.506.087.469-.742.469-.742v-23.733z" fill="#E2001A"/></g><mask id="mask1_185_2571" style="mask-type:luminance" maskUnits="userSpaceOnUse" x="374" y="99" width="14" height="54"><path fill-rule="evenodd" clip-rule="evenodd" d="M374.332 99.4h12.893v53.478h-12.893V99.399z" fill="#fff"/></mask><g mask="url(#mask1_185_2571)"><path fill-rule="evenodd" clip-rule="evenodd" d="M387.225 146.886c0 3.305-2.894 5.992-6.454 5.992-3.553 0-6.439-2.687-6.439-5.992v-41.508c0-3.307 2.886-5.979 6.445-5.979 3.554 0 6.448 2.672 6.448 5.979v41.508z" fill="#E2001A"/></g><path fill-rule="evenodd" clip-rule="evenodd" d="M168.704 78.83a4.969 4.969 0 01-3.978-1.987 4.97 4.97 0 011.001-6.948c13.177-9.858 33.345-15.748 53.945-15.748h.003c20.526 0 40.643 5.887 53.814 15.748a4.948 4.948 0 01.998 6.945c-1.63 2.192-4.744 2.642-6.943.998-8.892-6.656-26.139-13.767-47.866-13.767h-.006c-21.824 0-39.102 7.111-48 13.77a4.916 4.916 0 01-2.968.989z" fill="#E2001A"/><path fill-rule="evenodd" clip-rule="evenodd" d="M175.557 87.059a3.212 3.212 0 01-2.499-1.216c-1.121-1.42-.923-3.52.453-4.689 10.825-9.183 28.078-14.664 46.164-14.664 17.995 0 35.203 5.478 46.028 14.664 1.378 1.164 1.579 3.265.45 4.686a3.157 3.157 0 01-4.541.459c-9.712-8.234-25.389-13.15-41.937-13.15-16.385 0-32.509 5.039-42.068 13.153a3.134 3.134 0 01-2.05.757zM148.67 21.238c-1.906 0-3.792.495-5.442 1.43-2.465 1.397-4.222 3.635-4.938 6.298-.703 2.664-.307 5.427 1.16 7.788 1.901 3.078 5.42 5.015 9.195 5.047l.076.005a11.066 11.066 0 005.447-1.438c2.468-1.397 4.216-3.63 4.93-6.288.717-2.663.298-5.431-1.161-7.793-1.919-3.116-5.472-5.05-9.267-5.05zm73.098 8.228c-5.929 0-10.755 4.615-10.755 10.28 0 5.673 4.826 10.288 10.755 10.288 5.919 0 10.734-4.615 10.734-10.288 0-5.665-4.815-10.28-10.734-10.28zm0-28.797c-5.929 0-10.755 4.616-10.755 10.284 0 5.672 4.826 10.285 10.755 10.285 5.919 0 10.734-4.613 10.734-10.285 0-5.668-4.815-10.284-10.734-10.284zm-30.091 32.909c-.956 0-1.912.122-2.842.361-5.712 1.498-9.09 7.169-7.522 12.638 1.262 4.409 5.501 7.522 10.313 7.567l.242.003a11.134 11.134 0 002.65-.366c2.763-.722 5.063-2.437 6.488-4.823 1.419-2.389 1.782-5.157 1.028-7.804-1.281-4.463-5.534-7.576-10.357-7.576zm-30.117 8.229c-1.912 0-3.796.492-5.438 1.43-2.472 1.395-4.229 3.635-4.941 6.296-.706 2.663-.298 5.431 1.156 7.798 1.903 3.073 5.424 5.007 9.206 5.042l.064.002c1.918 0 3.791-.495 5.455-1.43 2.466-1.4 4.221-3.635 4.927-6.296.717-2.66.303-5.426-1.153-7.793-1.929-3.113-5.478-5.05-9.276-5.05zm93.116-7.867a11.33 11.33 0 00-2.837-.362c-4.825 0-9.086 3.11-10.357 7.572-1.565 5.469 1.809 11.131 7.524 12.628.928.243 1.891.37 2.845.37 4.814 0 9.086-3.116 10.358-7.575 1.556-5.466-1.818-11.137-7.533-12.634zm8.591-28.79a11.16 11.16 0 00-2.835-.366c-4.828 0-9.076 3.115-10.356 7.573-1.564 5.468 1.82 11.132 7.528 12.63a11.27 11.27 0 002.836.366c4.819 0 9.087-3.116 10.361-7.571 1.564-5.47-1.82-11.135-7.534-12.632zm19.835 38.087a11.102 11.102 0 00-5.455-1.43c-3.787 0-7.335 1.936-9.259 5.049-1.46 2.367-1.873 5.133-1.162 7.79.706 2.664 2.465 4.9 4.932 6.3a11.178 11.178 0 005.469 1.43c3.778 0 7.326-1.934 9.253-5.047 1.457-2.365 1.865-5.133 1.154-7.796-.715-2.66-2.471-4.901-4.932-6.296zm22.12-14.271c-.711-2.66-2.466-4.9-4.939-6.299a11.106 11.106 0 00-5.451-1.43c-3.777 0-7.327 1.937-9.25 5.05-1.463 2.367-1.876 5.135-1.162 7.793.709 2.658 2.464 4.893 4.931 6.29a11.088 11.088 0 005.462 1.436c3.788 0 7.335-1.933 9.259-5.049 1.457-2.362 1.868-5.127 1.15-7.79zm-122.133-3.614c.959 0 1.915-.126 2.834-.368 5.702-1.495 9.076-7.162 7.518-12.63-1.271-4.455-5.53-7.57-10.36-7.57-.956 0-1.915.124-2.837.366-5.716 1.497-9.093 7.161-7.53 12.632 1.265 4.41 5.505 7.52 10.313 7.565l.062.005z" fill="#E2001A"/></svg>